<?xml version="1.0" encoding="iso-8859-1"?>
<!-- Generator: Adobe Illustrator 16.0.0, SVG Export Plug-In . SVG Version: 6.00 Build 0)  -->
<!DOCTYPE svg PUBLIC "-//W3C//DTD SVG 1.1//EN" "http://www.w3.org/Graphics/SVG/1.1/DTD/svg11.dtd">
<svg version="1.1" id="Capa_1" xmlns="http://www.w3.org/2000/svg" xmlns:xlink="http://www.w3.org/1999/xlink" x="0px" y="0px"
	 width="48.055px" height="48.055px" viewBox="0 0 48.055 48.055" style="enable-background:new 0 0 48.055 48.055;"
	 xml:space="preserve" fill="#BEBAD4">
<g>
	<path d="M40.923,3.644c-0.134-1.38-0.787-2.653-2.029-3.267c-1.244-0.614-2.729-0.468-3.828,0.375l-4.801,3.678H18.157
		l-4.799-3.678c-1.1-0.844-2.584-0.989-3.828-0.375C8.287,0.989,7.646,2.264,7.5,3.643c-1.05,9.884-7.028,32.728,0,39.756
		c5.908,5.909,28.171,6.5,33.424,0C47.17,35.67,41.88,13.536,40.923,3.644z M15.965,26.966c-3.71,0-6.719-3.008-6.719-6.721
		c0-3.711,3.009-6.718,6.719-6.718s6.719,3.008,6.719,6.719C22.684,23.958,19.675,26.966,15.965,26.966z M27.019,28.965
		l-2.428,4.935c-0.105,0.215-0.325,0.354-0.564,0.354c-0.24,0-0.459-0.139-0.565-0.354l-2.425-4.935
		c-0.096-0.195-0.084-0.428,0.031-0.611c0.115-0.185,0.317-0.297,0.535-0.297h4.851c0.217,0,0.42,0.112,0.535,0.297
		C27.103,28.537,27.114,28.769,27.019,28.965z M32.089,26.966c-3.71,0-6.719-3.008-6.719-6.721c0-3.711,3.009-6.718,6.719-6.718
		s6.719,3.008,6.719,6.719C38.807,23.958,35.799,26.966,32.089,26.966z"/>
</g>
<g>
</g>
<g>
</g>
<g>
</g>
<g>
</g>
<g>
</g>
<g>
</g>
<g>
</g>
<g>
</g>
<g>
</g>
<g>
</g>
<g>
</g>
<g>
</g>
<g>
</g>
<g>
</g>
<g>
</g>
</svg>
